<svg
                          width="24"
                          height="24"
                          viewBox="0 0 24 24"
                          fill="none"
                          xmlns="http://www.w3.org/2000/svg"
                        >
                          <path
                            opacity="0.4"
                            d="M21.99 6.02002C22.01 6.26002 21.99 6.51001 21.93 6.76001L18.56 20.29C18.32 21.3 17.42 22 16.38 22H3.23998C1.72998 22 0.66 20.52 1.1 19.07L5.30999 5.53998C5.59999 4.59998 6.47001 3.96002 7.45001 3.96002H19.75C20.71 3.96002 21.49 4.53002 21.82 5.33002C21.92 5.54002 21.97 5.78002 21.99 6.02002Z"
                            fill="currentColor"
                          />
                          <path
                            d="M22.99 19.62C23.09 20.91 22.07 22 20.78 22H16.38C17.42 22 18.32 21.3 18.56 20.29L21.93 6.76001C21.99 6.51001 22.01 6.26002 21.99 6.02002L22 6L22.99 19.62Z"
                            fill="currentColor"
                          />
                          <path
                            d="M9.68001 7.13001C9.62001 7.13001 9.56002 7.11999 9.50002 7.10999C9.10002 7.00999 8.85003 6.61002 8.95003 6.20002L9.99001 1.88001C10.09 1.48001 10.49 1.24002 10.9 1.33002C11.3 1.43002 11.55 1.83 11.45 2.24L10.41 6.56C10.33 6.9 10.02 7.13001 9.68001 7.13001Z"
                            fill="currentColor"
                          />
                          <path
                            d="M16.3799 7.13998C16.3299 7.13998 16.2699 7.13997 16.2199 7.11997C15.8199 7.02996 15.56 6.62995 15.64 6.22995L16.5799 1.88998C16.6699 1.47998 17.0699 1.22997 17.4699 1.30997C17.8699 1.39997 18.1299 1.79998 18.0499 2.19998L17.1099 6.53995C17.0399 6.89995 16.7299 7.13998 16.3799 7.13998Z"
                            fill="currentColor"
                          />
                          <path
                            d="M15.7 12.75H7.69995C7.28995 12.75 6.94995 12.41 6.94995 12C6.94995 11.59 7.28995 11.25 7.69995 11.25H15.7C16.11 11.25 16.45 11.59 16.45 12C16.45 12.41 16.11 12.75 15.7 12.75Z"
                            fill="currentColor"
                          />
                          <path
                            d="M14.7 16.75H2.69995C6.28995 16.75 5.94995 16.41 5.94995 16C5.94995 15.59 6.28995 15.25 6.69995 15.25H14.7C15.11 15.25 15.45 15.59 15.45 16C15.45 16.41 15.11 16.75 14.7 16.75Z"
                            fill="currentColor"
                          />
                        </svg>