<svg width="24" height="25" viewBox="0 0 24 25" fill="none" xmlns="http://www.w3.org/2000/svg">
                  <path
                    opacity="0.4"
                    d="M3.98999 15.1599L2.47 13.6399C1.85 13.0199 1.85 11.9999 2.47 11.3799L3.98999 9.8599C4.24999 9.5999 4.46 9.08989 4.46 8.72989V6.57993C4.46 5.69993 5.18 4.97989 6.06 4.97989H8.21C8.57 4.97989 9.08 4.76992 9.34 4.50992L10.86 2.9899C11.48 2.3699 12.5 2.3699 13.12 2.9899L14.64 4.50992C14.9 4.76992 15.41 4.97989 15.77 4.97989H17.92C18.8 4.97989 19.52 5.69993 19.52 6.57993V8.72989C19.52 9.08989 19.73 9.5999 19.99 9.8599L21.51 11.3799C22.13 11.9999 22.13 13.0199 21.51 13.6399L19.99 15.1599C19.73 15.4199 19.52 15.9299 19.52 16.2899V18.4399C19.52 19.3199 18.8 20.0399 17.92 20.0399H15.77C15.41 20.0399 14.9 20.2499 14.64 20.5099L13.12 22.0299C12.5 22.6499 11.48 22.6499 10.86 22.0299L9.34 20.5099C9.08 20.2499 8.57 20.0399 8.21 20.0399H6.06C5.18 20.0399 4.46 19.3199 4.46 18.4399V16.2899C4.46 15.9199 4.24999 15.4099 3.98999 15.1599Z"
                    fill="currentColor"
                  />
                  <path d="M15 16.5C14.44 16.5 13.99 16.05 13.99 15.5C13.99 14.95 14.44 14.5 14.99 14.5C15.54 14.5 15.99 14.95 15.99 15.5C15.99 16.05 15.55 16.5 15 16.5Z" fill="currentColor" />
                  <path d="M9.01001 10.5C8.45001 10.5 8 10.05 8 9.5C8 8.95 8.45 8.5 9 8.5C9.55 8.5 10 8.95 10 9.5C10 10.05 9.56001 10.5 9.01001 10.5Z" fill="currentColor" />
                  <path
                    d="M9 16.25C8.81 16.25 8.62 16.18 8.47 16.03C8.18 15.74 8.18 15.2599 8.47 14.9699L14.47 8.96994C14.76 8.67994 15.24 8.67994 15.53 8.96994C15.82 9.25994 15.82 9.74 15.53 10.03L9.53 16.03C9.38 16.18 9.19 16.25 9 16.25Z"
                    fill="currentColor"
                  />
                </svg>